<svg xmlns="http://www.w3.org/2000/svg" width="72.859" height="31.209" viewBox="0 0 72.859 31.209">
  <g id="Grupo_14709" data-name="Grupo 14709" transform="translate(-21.873 -16.774)">
    <g id="Grupo_14708" data-name="Grupo 14708">
      <path id="Caminho_7039" data-name="Caminho 7039" d="M-12838.127-1676.9v13.889l10.65,6,10.719-6v-6.213l-10.719,6.213-5.85-3.184v-7.239Z" transform="translate(12860 1705)" fill="#fd9941"/>
      <path id="Caminho_7040" data-name="Caminho 7040" d="M-12832.129-1659.834l4.652,2.39,10.719-6v-5.786l-10.719,6.213-4.652-2.815Z" transform="translate(12860 1698)" fill="#fd9941"/>
      <path id="Caminho_7041" data-name="Caminho 7041" d="M-12827.062-1655.092l10.3-5.515v-8.62l-10.3,5.571Z" transform="translate(12862 1686)" fill="#fd9941"/>
    </g>
    <path id="Caminho_7042" data-name="Caminho 7042" d="M-27.565-4.175V-7.482h2.911a4.532,4.532,0,0,1,.8.069,2,2,0,0,1,.683.247,1.318,1.318,0,0,1,.475.495,1.643,1.643,0,0,1,.178.812,1.5,1.5,0,0,1-.535,1.287,2.235,2.235,0,0,1-1.366.4ZM-30.674-9.9V4.24h6.851A7.229,7.229,0,0,0-21.972,4a4.95,4.95,0,0,0,1.6-.733A3.608,3.608,0,0,0-19.25,1.992,3.891,3.891,0,0,0-18.834.141a3.917,3.917,0,0,0-.643-2.267,3.4,3.4,0,0,0-1.95-1.317,3.524,3.524,0,0,0,1.435-1.168,3.1,3.1,0,0,0,.485-1.782,3.792,3.792,0,0,0-.327-1.663,2.717,2.717,0,0,0-.921-1.079,3.976,3.976,0,0,0-1.426-.584A8.8,8.8,0,0,0-24.021-9.9Zm3.109,11.721V-2.057h3.386a2.619,2.619,0,0,1,1.624.465,1.828,1.828,0,0,1,.614,1.554,1.943,1.943,0,0,1-.188.911,1.5,1.5,0,0,1-.5.564,2.138,2.138,0,0,1-.733.3,4.148,4.148,0,0,1-.871.089ZM-16.735-9.9V4.24h2.911V-5.68h.04l3.465,9.92h2.4L-4.459-5.779h.04V4.24h2.911V-9.9H-5.885L-9.013-.176h-.04L-12.359-9.9ZM3.342-.453H.332A4.669,4.669,0,0,0,.808,1.8,4.45,4.45,0,0,0,2.144,3.368a5.7,5.7,0,0,0,1.94.9,8.932,8.932,0,0,0,2.267.287A8.7,8.7,0,0,0,8.9,4.22a5.38,5.38,0,0,0,1.841-.94,3.914,3.914,0,0,0,1.119-1.435,4.32,4.32,0,0,0,.376-1.8,3.466,3.466,0,0,0-.5-1.95,4.217,4.217,0,0,0-1.2-1.218,5.266,5.266,0,0,0-1.4-.663q-.7-.208-1.1-.287-1.327-.337-2.148-.554A7.968,7.968,0,0,1,4.6-5.066a1.414,1.414,0,0,1-.624-.475,1.271,1.271,0,0,1-.158-.673,1.329,1.329,0,0,1,.2-.752,1.72,1.72,0,0,1,.5-.495A2.013,2.013,0,0,1,5.2-7.739a3.643,3.643,0,0,1,.752-.079,5.3,5.3,0,0,1,1.059.1,2.553,2.553,0,0,1,.861.337,1.749,1.749,0,0,1,.6.653A2.5,2.5,0,0,1,8.747-5.68h3.01a4.342,4.342,0,0,0-.465-2.089,4.056,4.056,0,0,0-1.257-1.416,5.309,5.309,0,0,0-1.812-.8,8.994,8.994,0,0,0-2.128-.247,7.244,7.244,0,0,0-1.9.257,5.307,5.307,0,0,0-1.7.792A4.216,4.216,0,0,0,1.273-7.848,3.7,3.7,0,0,0,.808-5.957,3.457,3.457,0,0,0,1.174-4.3a3.5,3.5,0,0,0,.96,1.138,5.306,5.306,0,0,0,1.346.742,13.537,13.537,0,0,0,1.544.485q.772.218,1.525.4A9.584,9.584,0,0,1,7.9-1.126a2.905,2.905,0,0,1,.96.594A1.24,1.24,0,0,1,9.222.4a1.366,1.366,0,0,1-.277.881,1.944,1.944,0,0,1-.693.544,3.1,3.1,0,0,1-.891.267,6.193,6.193,0,0,1-.891.069,4.726,4.726,0,0,1-1.188-.148,2.957,2.957,0,0,1-1-.455A2.249,2.249,0,0,1,3.6.755,2.593,2.593,0,0,1,3.342-.453Z" transform="translate(82 33.747)" fill="rgba(0,0,0,0.88)" stroke="rgba(0,0,0,0)" stroke-width="1"/>
  </g>
</svg>
