<svg width="14" height="14" viewBox="0 0 14 14" fill="none" xmlns="http://www.w3.org/2000/svg">
<path d="M13.8819 7.17746C13.8228 7.08873 13.744 7.00988 13.6456 6.96059L9.0478 4.66339V2.07043C9.0478 1.51831 8.83121 0.995799 8.4374 0.611292C8.04359 0.216926 7.53166 0 6.98032 0C6.42899 0 5.90721 0.216926 5.52324 0.611292C5.12943 1.00566 4.92263 1.51831 4.92263 2.07043V4.66339L0.324911 6.96059C0.226458 7.00988 0.147705 7.08873 0.0886338 7.17746C0.0295622 7.26619 0 7.37465 0 7.49296V9.46479C0 9.55352 0.0197482 9.64226 0.0591293 9.72113C0.0985104 9.80001 0.14771 9.86901 0.216627 9.92817C0.285544 9.98732 0.364296 10.0268 0.452904 10.0465C0.50213 10.0563 0.551381 10.0662 0.600607 10.0662C0.639988 10.0662 0.679364 10.0662 0.718745 10.0563L4.93249 9.20847V10.2141L4.12517 11.0225C4.0661 11.0817 4.02677 11.1409 3.99724 11.2099C3.9677 11.2789 3.94796 11.3577 3.94796 11.4366V13.4084C3.94796 13.507 3.96766 13.6056 4.01689 13.6845C4.06611 13.7732 4.12519 13.8422 4.20395 13.9014C4.28271 13.9507 4.38118 13.9901 4.46979 14C4.48948 14 4.50917 14 4.52886 14C4.60762 14 4.67652 13.9901 4.75528 13.9606L7.00003 13.0634L9.24472 13.9606C9.31364 13.9901 9.39244 14 9.4712 14C9.49089 14 9.51058 14 9.53027 14C9.62872 13.9901 9.71729 13.9606 9.79605 13.9014C9.87481 13.8521 9.94373 13.7732 9.98311 13.6845C10.0323 13.5958 10.052 13.507 10.052 13.4084V11.4366C10.052 11.3577 10.0324 11.2789 10.0028 11.2099C9.97329 11.1409 9.9339 11.0718 9.87483 11.0225L9.06751 10.2141V9.20847L13.2813 10.0563C13.3207 10.0662 13.3601 10.0662 13.3995 10.0662C13.4487 10.0662 13.4979 10.0563 13.5471 10.0465C13.6357 10.0268 13.7145 9.98732 13.7834 9.92817C13.8523 9.86901 13.9015 9.80001 13.9409 9.72113C13.9803 9.64226 14 9.55352 14 9.46479V7.49296C13.9705 7.38451 13.9409 7.27605 13.8819 7.17746ZM5.4051 7.99578C5.43464 7.98592 5.47399 7.98591 5.50353 7.98591C5.54291 7.98591 5.58229 7.98592 5.62167 7.99578C5.55275 7.98592 5.48386 7.97607 5.4051 7.99578ZM5.1097 12.531V11.6733L5.91701 10.8648C5.97609 10.8056 6.01547 10.7465 6.04501 10.6775C6.07454 10.6085 6.09422 10.5296 6.09422 10.4507V8.47887C6.09422 8.39014 6.07453 8.30143 6.03515 8.22255C5.99577 8.14368 5.94657 8.07465 5.87766 8.01549C5.80874 7.95634 5.73 7.9169 5.65123 7.89719C5.60201 7.88733 5.55276 7.87748 5.50353 7.87748C5.46415 7.87748 5.42477 7.87746 5.38539 7.88732L1.17159 8.73522V7.8479L5.76937 5.5507C5.86782 5.50141 5.94658 5.42253 6.00565 5.3338C6.06472 5.24507 6.09422 5.13664 6.09422 5.01833V2.06059C6.09422 1.82397 6.18284 1.59719 6.35021 1.42959C6.51758 1.26198 6.74403 1.17324 6.98032 1.17324C7.21661 1.17324 7.44306 1.26198 7.61043 1.42959C7.7778 1.59719 7.86642 1.82397 7.86642 2.06059V5.01833C7.86642 5.12678 7.89592 5.23521 7.95499 5.3338C8.01406 5.42253 8.09282 5.50141 8.19127 5.5507L12.7891 7.8479V8.73522L8.57525 7.88732C8.53587 7.87746 8.49649 7.87748 8.45711 7.87748C8.40788 7.87748 8.35863 7.88733 8.30941 7.89719C8.2208 7.9169 8.14205 7.95634 8.07313 8.01549C8.00421 8.07465 7.95501 8.14368 7.91563 8.22255C7.87625 8.30143 7.85656 8.39014 7.85656 8.47887V10.4507C7.85656 10.5296 7.87624 10.6085 7.90578 10.6775C7.93531 10.7465 7.9747 10.8155 8.03377 10.8648L8.84109 11.6733V12.531L7.18709 11.8704C7.11818 11.8408 7.03938 11.831 6.97047 11.831C6.8917 11.831 6.82281 11.8408 6.7539 11.8704L5.1097 12.531ZM8.33897 7.99578C8.37835 7.98592 8.41773 7.98591 8.45711 7.98591C8.48665 7.98591 8.526 7.98592 8.55554 7.99578C8.48662 7.97607 8.40789 7.98592 8.33897 7.99578ZM6.98032 11.9296C6.92125 11.9296 6.85233 11.9394 6.79326 11.969C6.86217 11.9394 6.92125 11.9296 6.98032 11.9296ZM0.580897 9.95774C0.541516 9.95774 0.50214 9.95776 0.462759 9.94791C0.531676 9.96762 0.610409 9.9676 0.679326 9.95774C0.64979 9.95774 0.610433 9.95774 0.580897 9.95774ZM4.519 13.9014C4.49931 13.9014 4.48948 13.9014 4.46979 13.9014C4.54855 13.9113 4.6273 13.9014 4.70607 13.8718C4.64699 13.8915 4.57808 13.9014 4.519 13.9014ZM9.44164 13.9014C9.38257 13.9014 9.31365 13.8916 9.25457 13.862C9.33334 13.8916 9.41209 13.9014 9.49085 13.8916C9.48101 13.9014 9.46133 13.9014 9.44164 13.9014ZM13.3797 9.95774C13.3502 9.95774 13.3109 9.95776 13.2813 9.94791C13.3502 9.95776 13.429 9.95776 13.4979 9.93804C13.4585 9.9479 13.4191 9.95774 13.3797 9.95774Z" fill="#8C8C8C"/>
</svg>
